/* XPM */
static char * fileman16_xpm[] = {
"16 16 17 1",
" 	c None",
".	c #000000",
"+	c #9999FF",
"@	c #CCCCFF",
"#	c #6666CC",
"$	c #333366",
"%	c #6666FF",
"&	c #666699",
"*	c #000033",
"=	c #333399",
"-	c #99CCFF",
";	c #FFFFFF",
">	c #CC99FF",
",	c #000066",
"'	c #9999CC",
")	c #5D5D5D",
"!	c #353535",
"  ..            ",
"..++..  ..      ",
".@#$%+..++..    ",
".@@+&$%+++++.   ",
".@@@@+&$%++#$   ",
".@@@@@@+&$+#$   ",
".@@@@@@@@#$#$   ",
".@@@*+@+@%$=$   ",
".@-*;.@+@#$&$   ",
".>*;;;,@+'$=$   ",
".#;;;;;,+%$=$   ",
" .,,,,,)+'$&$.  ",
" .;;;;;-+#$=$...",
" .;;...$'%$&*.. ",
" .;;. .$.#$=$.  ",
" .... $  $!!    "};
