/* XPM */
static char * FileManager_xpm[] = {
"32 32 33 1",
" 	c None",
".	c #333366",
"+	c #000000",
"@	c #9999FF",
"#	c #6666FF",
"$	c #6666CC",
"%	c #6699FF",
"&	c #9966CC",
"*	c #9966FF",
"=	c #9999CC",
"-	c #CCCCFF",
";	c #336699",
">	c #6699CC",
",	c #333399",
"'	c #663399",
")	c #333333",
"!	c #CCFFFF",
"~	c #666699",
"{	c #000033",
"]	c #FFFFFF",
"^	c #CC99FF",
"/	c #99CCFF",
"(	c #000066",
"_	c #330066",
":	c #003333",
"<	c #003366",
"[	c #99FFFF",
"}	c #3333CC",
"|	c #CC99CC",
"1	c #330033",
"2	c #330099",
"3	c #000099",
"4	c #CCCCCC",
"                                ",
"      ..+                       ",
"     .+@+++                     ",
"    ++@@#@$++                   ",
"    +@@$@%&#$+                  ",
"  ++.*@@$=#=$+                  ",
"  +-@;.@@*=#>$+                 ",
"  +---@,.%@@*$+                 ",
"  +-----@'.%@@$++               ",
"  +-------@'.#@@)++             ",
"  +---------@,.#@@@)+           ",
"  +-----!-----@~,.$@#)+         ",
"  +-------------#@,.$##{+       ",
"  +--------@-@---@]@,.$=#+      ",
"  +-----------@--@@--@.$$+      ",
"  +-------@-{--^@--/^--.$+      ",
"  +------@-(((^/--@^/@$.$+      ",
"  +----@--(_]_:^@/^/^@=.~+      ",
"  +-----@{{]]](--^/@/^$.,+      ",
"  +--/^-<_]]]]]([@^/^@=.}+      ",
"  +^-^-.]]]]]]]](^/^@/#.'+      ",
"  +>@-/]]]]]]]]]((@/|@=.;++1    ",
"   ++$23(_(.{_:{_:1@/@$.'+++++  ",
"     +33]]]]]]]]]]/^@@=.,++++++1",
"      +(]]]]]]]]]]@@@^$.;+++++++",
"      +3]]]]]]]]]:@@/@>.'++++++ ",
"      +(]]]{(2((]{^@^@&.,+++++  ",
"      +3]]]_(++_]:@/@@%.}++++   ",
"      +(]]](+  +]_&=@@&.'++     ",
"      +(]]](+  +]++++=$.;+      ",
"      _:+++++  +++  +++.,+      ",
"                      .)+       "};
